<svg width="212" height="209" viewBox="0 0 212 209" fill="none" xmlns="http://www.w3.org/2000/svg">
    <path d="M9.58789 60.1736C31.4011 13.4352 84.6591 -9.56708 134.379 3.7381C154.943 7.6315 177.644 25.6013 190.014 41.8885L190.017 41.8836C247.833 118.012 180.179 223.246 86.1211 206.528C75.113 204.573 66.1856 201.115 55.6689 197.87C42.1509 200.519 26.672 206.661 13.2217 208.366C6.59672 209.207 1.05944 208.173 1.06445 200.246C1.07214 187.594 9.65816 169.098 10.9746 155.929C11.3306 152.381 10.7165 151.367 9.70605 148.303C-0.815633 116.394 -5.40222 92.2899 9.58789 60.1736ZM117.623 15.7859C76.246 10.4656 33.9466 34.6376 20.4209 74.3377C12.8983 96.4137 14.5882 120.099 23.1113 141.612C25.0746 142.566 27.1485 150.855 27.0811 153.22L19.0889 190.469C20.4204 191.783 50.3037 183.138 55.1357 182.627C64.1828 181.668 72.801 187.64 81.5723 189.991C91.452 192.638 103.391 193.977 113.602 193.148C179.289 187.82 216.95 113.465 181.973 57.282C168.306 35.3337 143.488 19.111 117.623 15.7859ZM85.7939 51.2684C106.245 49.3881 129.402 52.6626 150.145 51.243C154.345 52.0767 156.629 54.29 153.813 58.2859C152.289 60.4492 140.897 71.8421 138.74 73.3494C136.779 74.7213 135.089 75.1719 132.729 75.3797C119.485 76.5514 104.394 74.1957 91.1191 75.3299L91.1221 75.327C84.5323 75.8903 79.5775 79.3579 81.9443 86.5486C83.4814 91.2182 87.3957 91.2011 91.4805 91.4139C112.882 92.5256 137.401 85.6529 149.906 108.37C162.597 131.422 145.34 155.349 120.666 157.031C105.114 158.093 79.7702 158.232 64.3086 157.028C59.6722 156.665 53.5619 155.524 56.9971 149.673C58.4715 147.164 70.9991 134.259 73.3838 133.245C74.7979 132.642 76.8312 132.348 78.3857 132.216C91.7935 131.071 107.418 133.653 120.641 132.241C126.446 131.623 130.731 127.02 128.392 121.146C125.728 114.459 112.632 116.595 106.897 116.177C93.7855 115.881 82.6487 118.303 71.1641 110.696C45.2811 93.5526 54.8206 54.1177 85.7939 51.2684Z" fill="url(#paint0_linear_4_7)"/>
    <mask id="path-2-inside-1_4_7" fill="white">
    <path d="M9.58871 60.1737C31.4019 13.4352 84.6599 -9.56709 134.38 3.73811C154.944 7.63158 177.645 25.6013 190.014 41.8885L190.017 41.8836C247.834 118.012 180.18 223.246 86.1219 206.528C75.1137 204.573 66.1864 201.115 55.6698 197.87C42.1517 200.519 26.6729 206.661 13.2225 208.366C6.59754 209.207 1.06025 208.173 1.06527 200.246C1.07296 187.594 9.65897 169.098 10.9754 155.929C11.3314 152.381 10.7173 151.367 9.70687 148.303C-0.814827 116.394 -5.40145 92.2899 9.58871 60.1737ZM117.624 15.786C76.2468 10.4655 33.9474 34.6376 20.4217 74.3377C12.8991 96.4137 14.589 120.099 23.1121 141.612C25.0754 142.566 27.1484 150.856 27.0809 153.22L19.0897 190.469C20.4212 191.783 50.3027 183.138 55.1356 182.627C64.1828 181.668 72.8017 187.64 81.5731 189.991C91.4528 192.638 103.392 193.977 113.602 193.148C179.29 187.82 216.95 113.465 181.972 57.2821C168.306 35.3337 143.489 19.111 117.624 15.786ZM85.7938 51.2684C106.245 49.388 129.403 52.6626 150.145 51.243C154.345 52.0767 156.63 54.29 153.814 58.286C152.29 60.4492 140.898 71.8421 138.741 73.3494C136.78 74.7214 135.09 75.1719 132.73 75.3797C119.485 76.5514 104.395 74.1957 91.12 75.3299L91.1229 75.327C84.5331 75.8903 79.5782 79.3579 81.9452 86.5487C83.4823 91.2182 87.3965 91.2011 91.4813 91.4139C112.883 92.5256 137.402 85.653 149.907 108.37C162.598 131.422 145.341 155.348 120.667 157.031C105.115 158.093 79.771 158.232 64.3094 157.028C59.6731 156.665 53.5621 155.524 56.9969 149.673C58.4714 147.164 70.9999 134.259 73.3846 133.245C74.7988 132.642 76.832 132.348 78.3866 132.216C91.7944 131.071 107.419 133.653 120.641 132.241C126.446 131.623 130.732 127.02 128.392 121.146C125.729 114.459 112.632 116.595 106.897 116.177C93.7855 115.881 82.6493 118.302 71.1649 110.696C45.282 93.5527 54.8207 54.118 85.7938 51.2684Z"/>
    </mask>
    <path d="M9.58871 60.1737L11.396 61.0172L11.396 61.0171L9.58871 60.1737ZM134.38 3.73811L133.864 5.66477L133.936 5.68394L134.009 5.69775L134.38 3.73811ZM190.014 41.8885L188.426 43.0948L190.209 45.4416L191.725 42.9146L190.014 41.8885ZM190.017 41.8836L191.606 40.6773L189.823 38.3305L188.307 40.8575L190.017 41.8836ZM86.1219 206.528L86.4709 204.564L86.4707 204.564L86.1219 206.528ZM55.6698 197.87L56.2578 195.964L55.7785 195.816L55.2862 195.913L55.6698 197.87ZM13.2225 208.366L12.9717 206.387L12.9712 206.387L13.2225 208.366ZM1.06527 200.246L3.05972 200.247L3.05972 200.247L1.06527 200.246ZM10.9754 155.929L8.99094 155.729L8.99086 155.73L10.9754 155.929ZM9.70687 148.303L7.81274 148.927L9.70687 148.303ZM117.624 15.786L117.369 17.7641L117.37 17.7641L117.624 15.786ZM20.4217 74.3377L22.3096 74.981L22.3096 74.9809L20.4217 74.3377ZM23.1121 141.612L21.2579 142.347L21.5433 143.067L22.2403 143.406L23.1121 141.612ZM27.0809 153.22L29.031 153.638L29.0693 153.459L29.0745 153.276L27.0809 153.22ZM19.0897 190.469L17.1396 190.05L16.9102 191.12L17.6885 191.888L19.0897 190.469ZM55.1356 182.627L55.3453 184.61L55.3458 184.61L55.1356 182.627ZM81.5731 189.991L81.0567 191.917L81.057 191.918L81.5731 189.991ZM113.602 193.148L113.441 191.16L113.441 191.16L113.602 193.148ZM181.972 57.2821L183.666 56.228L183.666 56.2279L181.972 57.2821ZM85.7938 51.2684L85.6112 49.2823L85.6111 49.2823L85.7938 51.2684ZM150.145 51.243L150.534 49.2867L150.274 49.2351L150.009 49.2532L150.145 51.243ZM153.814 58.286L155.445 59.4349L155.445 59.4348L153.814 58.286ZM138.741 73.3494L137.598 71.7147L137.598 71.7153L138.741 73.3494ZM132.73 75.3797L132.555 73.3929L132.555 73.393L132.73 75.3797ZM91.12 75.3299L89.7097 73.9196L85.8471 77.7821L91.2897 77.3171L91.12 75.3299ZM91.1229 75.327L92.5332 76.7373L96.396 72.8745L90.953 73.3398L91.1229 75.327ZM81.9452 86.5487L80.0507 87.1722L80.0507 87.1723L81.9452 86.5487ZM91.4813 91.4139L91.3775 93.4056L91.3778 93.4057L91.4813 91.4139ZM149.907 108.37L148.16 109.332L148.16 109.332L149.907 108.37ZM120.667 157.031L120.531 155.041L120.531 155.041L120.667 157.031ZM64.3094 157.028L64.1537 159.017L64.1545 159.017L64.3094 157.028ZM56.9969 149.673L55.2774 148.662L55.2769 148.663L56.9969 149.673ZM73.3846 133.245L74.1651 135.08L74.1672 135.079L73.3846 133.245ZM78.3866 132.216L78.217 130.228H78.2169L78.3866 132.216ZM120.641 132.241L120.43 130.258L120.43 130.258L120.641 132.241ZM128.392 121.146L126.539 121.884L126.54 121.884L128.392 121.146ZM106.897 116.177L107.042 114.187L106.992 114.184L106.942 114.183L106.897 116.177ZM71.1649 110.696L70.0635 112.359L70.0636 112.359L71.1649 110.696ZM9.58871 60.1737L11.396 61.0171C32.7759 15.2072 85.0224 -7.40546 133.864 5.66477L134.38 3.73811L134.895 1.81145C84.2975 -11.7287 30.028 11.6632 7.78139 59.3302L9.58871 60.1737ZM134.38 3.73811L134.009 5.69775C143.907 7.57182 154.454 12.8704 164.109 19.787C173.749 26.6932 182.369 35.12 188.426 43.0948L190.014 41.8885L191.603 40.6822C185.29 32.3699 176.375 23.6681 166.432 16.5443C156.502 9.43086 145.417 3.79786 134.751 1.77847L134.38 3.73811ZM190.014 41.8885L191.725 42.9146L191.728 42.9098L190.017 41.8836L188.307 40.8575L188.304 40.8624L190.014 41.8885ZM190.017 41.8836L188.429 43.0899C245.07 117.67 178.869 220.987 86.4709 204.564L86.1219 206.528L85.7729 208.492C181.491 225.505 250.598 118.354 191.606 40.6773L190.017 41.8836ZM86.1219 206.528L86.4707 204.564C75.6244 202.638 66.9275 199.256 56.2578 195.964L55.6698 197.87L55.0817 199.776C65.4454 202.973 74.6031 206.508 85.7731 208.492L86.1219 206.528ZM55.6698 197.87L55.2862 195.913C48.4194 197.258 41.0602 199.49 33.8701 201.555C26.6222 203.637 19.5258 205.557 12.9717 206.387L13.2225 208.366L13.4733 210.345C20.3695 209.47 27.7378 207.467 34.9713 205.389C42.2628 203.295 49.402 201.131 56.0533 199.827L55.6698 197.87ZM13.2225 208.366L12.9712 206.387C9.72152 206.8 7.21116 206.67 5.57411 205.823C4.81322 205.429 4.22308 204.871 3.80139 204.059C3.36603 203.22 3.05861 202.006 3.05972 200.247L1.06527 200.246L-0.929184 200.245C-0.930579 202.449 -0.547721 204.338 0.260773 205.896C1.08295 207.48 2.29025 208.615 3.74117 209.366C6.52775 210.807 10.0985 210.773 13.4737 210.345L13.2225 208.366ZM1.06527 200.246L3.05972 200.247C3.06336 194.261 5.11257 186.758 7.44279 178.845C9.72647 171.09 12.2783 162.946 12.96 156.127L10.9754 155.929L8.99086 155.73C8.35609 162.08 5.95669 169.77 3.61633 177.718C1.32251 185.508 -0.925131 193.579 -0.929184 200.245L1.06527 200.246ZM10.9754 155.929L12.9599 156.128C13.1528 154.205 13.0934 152.846 12.8023 151.51C12.5376 150.295 12.0567 149.06 11.601 147.678L9.70687 148.303L7.81274 148.927C8.36754 150.61 8.69888 151.414 8.90482 152.359C9.08431 153.183 9.15401 154.104 8.99094 155.729L10.9754 155.929ZM9.70687 148.303L11.601 147.678C6.35174 131.759 2.64954 117.973 2.07355 104.233C1.49971 90.5436 4.02703 76.8051 11.396 61.0172L9.58871 60.1737L7.78142 59.3301C0.16023 75.6584 -2.51422 90.0302 -1.91186 104.4C-1.31166 118.717 2.54031 132.938 7.81274 148.927L9.70687 148.303ZM117.624 15.786L117.878 13.8078C75.6365 8.37618 32.3895 33.026 18.5338 73.6945L20.4217 74.3377L22.3096 74.9809C35.5054 36.2491 76.8571 12.5549 117.369 17.7641L117.624 15.786ZM20.4217 74.3377L18.5339 73.6944C10.8373 96.2807 12.5857 120.458 21.2579 142.347L23.1121 141.612L24.9664 140.878C16.5923 119.741 14.9608 96.5467 22.3096 74.981L20.4217 74.3377ZM23.1121 141.612L22.2403 143.406C22.0768 143.326 22.0958 143.276 22.2595 143.492C22.4022 143.681 22.5807 143.973 22.7826 144.381C23.1852 145.194 23.5894 146.28 23.9497 147.467C24.307 148.644 24.6043 149.863 24.8065 150.918C25.0172 152.017 25.0976 152.8 25.0873 153.163L27.0809 153.22L29.0745 153.276C29.0979 152.457 28.9446 151.317 28.7241 150.167C28.4953 148.974 28.1643 147.618 27.7665 146.308C27.3715 145.007 26.8935 143.694 26.3575 142.611C26.09 142.071 25.7849 141.54 25.4388 141.083C25.1136 140.654 24.6383 140.136 23.984 139.818L23.1121 141.612ZM27.0809 153.22L25.1308 152.801L17.1396 190.05L19.0897 190.469L21.0398 190.887L29.031 153.638L27.0809 153.22ZM19.0897 190.469L17.6885 191.888C18.1213 192.315 18.6219 192.454 18.8464 192.506C19.1194 192.569 19.3854 192.59 19.6012 192.596C20.0378 192.609 20.541 192.571 21.0543 192.511C22.0967 192.389 23.4604 192.143 25.0078 191.823C28.1166 191.18 32.1635 190.197 36.2835 189.167C40.4274 188.131 44.6265 187.051 48.1284 186.189C51.6918 185.312 54.3056 184.72 55.3453 184.61L55.1356 182.627L54.9258 180.643C53.5491 180.789 50.6154 181.469 47.1752 182.316C43.6734 183.178 39.4128 184.273 35.3157 185.297C31.1948 186.328 27.2196 187.292 24.2001 187.917C22.6834 188.23 21.4564 188.448 20.5909 188.549C20.1503 188.601 19.8702 188.614 19.7204 188.609C19.643 188.607 19.6651 188.601 19.7466 188.62C19.7797 188.628 20.1413 188.704 20.4909 189.049L19.0897 190.469ZM55.1356 182.627L55.3458 184.61C59.3836 184.182 63.4333 185.29 67.7486 186.932C71.9073 188.514 76.5485 190.709 81.0567 191.917L81.5731 189.991L82.0894 188.065C77.8262 186.922 73.7723 184.956 69.1669 183.204C64.7182 181.511 59.9348 180.112 54.9254 180.643L55.1356 182.627ZM81.5731 189.991L81.057 191.918C91.1263 194.615 103.295 195.986 113.764 195.136L113.602 193.148L113.441 191.16C103.488 191.968 91.7794 190.66 82.0891 188.064L81.5731 189.991ZM113.602 193.148L113.764 195.136C180.936 189.687 219.434 113.681 183.666 56.228L181.972 57.2821L180.279 58.3362C214.466 113.248 177.644 185.952 113.441 191.16L113.602 193.148ZM181.972 57.2821L183.666 56.2279C169.689 33.7802 144.348 17.2105 117.878 13.8078L117.624 15.786L117.37 17.7641C142.63 21.0115 166.924 36.8872 180.279 58.3363L181.972 57.2821ZM85.7938 51.2684L85.9764 53.2545C96.0543 52.3279 106.831 52.6692 117.786 53.076C128.693 53.4809 139.783 53.9513 150.282 53.2328L150.145 51.243L150.009 49.2532C139.765 49.9543 128.906 49.4972 117.934 49.0898C107.013 48.6843 95.9849 48.3285 85.6112 49.2823L85.7938 51.2684ZM150.145 51.243L149.757 53.1993C151.738 53.5926 152.65 54.2173 152.933 54.6576C153.04 54.824 153.378 55.442 152.184 57.1371L153.814 58.286L155.445 59.4348C157.066 57.134 157.67 54.6474 156.288 52.4997C155.083 50.626 152.753 49.7272 150.534 49.2867L150.145 51.243ZM153.814 58.286L152.184 57.137C151.901 57.5383 151.012 58.5468 149.668 59.9721C148.369 61.3499 146.749 63.0094 145.105 64.6532C143.46 66.297 141.801 67.9155 140.424 69.2122C138.998 70.5549 137.994 71.4381 137.598 71.7147L138.741 73.3494L139.884 74.9842C140.566 74.5071 141.795 73.401 143.159 72.116C144.572 70.785 146.261 69.1375 147.925 67.4742C149.589 65.811 151.237 64.1224 152.57 62.7085C153.859 61.3421 154.965 60.1152 155.445 59.4349L153.814 58.286ZM138.741 73.3494L137.598 71.7153C136.002 72.8318 134.677 73.2061 132.555 73.3929L132.73 75.3797L132.905 77.3665C135.503 77.1377 137.559 76.611 139.884 74.9836L138.741 73.3494ZM132.73 75.3797L132.555 73.393C126.085 73.9653 119.135 73.6781 112.021 73.3762C104.962 73.0767 97.7381 72.7627 90.9502 73.3427L91.12 75.3299L91.2897 77.3171C97.7767 76.7629 104.735 77.0596 111.852 77.3615C118.913 77.6611 126.13 77.9658 132.906 77.3664L132.73 75.3797ZM91.12 75.3299L92.5302 76.7402L92.5332 76.7373L91.1229 75.327L89.7126 73.9167L89.7097 73.9196L91.12 75.3299ZM91.1229 75.327L90.953 73.3398C87.4284 73.6411 83.9813 74.7381 81.738 77.0697C79.3534 79.5483 78.6881 83.0328 80.0507 87.1722L81.9452 86.5487L83.8396 85.9251C82.8352 82.8738 83.464 81.0291 84.6125 79.8353C85.9024 78.4947 88.2276 77.5762 91.2928 77.3142L91.1229 75.327ZM81.9452 86.5487L80.0507 87.1723C81.0159 90.1043 82.8377 91.7201 85.0815 92.5288C87.1094 93.2598 89.4738 93.3064 91.3775 93.4056L91.4813 91.4139L91.5851 89.4221C89.404 89.3085 87.7689 89.2574 86.4341 88.7763C85.3154 88.373 84.4116 87.6626 83.8396 85.925L81.9452 86.5487ZM91.4813 91.4139L91.3778 93.4057C96.8254 93.6886 102.474 93.4634 107.929 93.3316C113.431 93.1986 118.764 93.1588 123.79 93.7698C133.727 94.9778 142.304 98.6948 148.16 109.332L149.907 108.37L151.654 107.408C145.005 95.3281 135.07 91.1229 124.271 89.8101C118.929 89.1606 113.338 89.2107 107.833 89.3438C102.28 89.478 96.8381 89.695 91.5847 89.4221L91.4813 91.4139ZM149.907 108.37L148.16 109.332C154.143 120.2 153.048 131.164 147.619 139.638C142.161 148.159 132.263 154.241 120.531 155.041L120.667 157.031L120.803 159.021C133.745 158.138 144.812 151.416 150.978 141.79C157.174 132.118 158.362 119.592 151.654 107.408L149.907 108.37ZM120.667 157.031L120.531 155.041C105.058 156.097 79.8127 156.235 64.4643 155.04L64.3094 157.028L64.1545 159.017C79.7293 160.23 105.172 160.088 120.803 159.021L120.667 157.031ZM64.3094 157.028L64.4651 155.04C63.3437 154.952 62.1911 154.821 61.1434 154.598C60.0741 154.37 59.2452 154.073 58.6932 153.723C58.1754 153.395 58.0422 153.121 58.0035 152.898C57.9536 152.611 57.9826 151.933 58.7169 150.682L56.9969 149.673L55.2769 148.663C54.2939 150.338 53.7986 151.997 54.0734 153.58C54.3593 155.228 55.3997 156.359 56.5598 157.094C57.6857 157.806 59.0392 158.228 60.3123 158.499C61.6071 158.775 62.957 158.923 64.1537 159.017L64.3094 157.028ZM56.9969 149.673L58.7164 150.683C58.9628 150.264 59.8712 149.143 61.3273 147.523C62.7221 145.972 64.4793 144.115 66.2698 142.298C68.0616 140.481 69.8694 138.722 71.3659 137.363C72.1157 136.683 72.7702 136.118 73.2953 135.702C73.558 135.494 73.7731 135.335 73.9408 135.221C74.1245 135.097 74.19 135.07 74.1651 135.08L73.3846 133.245L72.6041 131.41C72.0289 131.654 71.382 132.128 70.8172 132.576C70.195 133.069 69.4679 133.699 68.6847 134.41C67.1154 135.835 65.2518 137.649 63.4291 139.498C61.605 141.348 59.8046 143.251 58.361 144.857C56.9788 146.394 55.7682 147.827 55.2774 148.662L56.9969 149.673ZM73.3846 133.245L74.1672 135.079C75.2683 134.61 77.0278 134.333 78.5562 134.203L78.3866 132.216L78.2169 130.228C76.6363 130.363 74.3293 130.674 72.602 131.41L73.3846 133.245ZM78.3866 132.216L78.5561 134.203C85.1039 133.644 92.2203 133.994 99.4938 134.321C106.703 134.646 114.067 134.949 120.853 134.224L120.641 132.241L120.43 130.258C113.994 130.945 106.934 130.663 99.6733 130.336C92.4769 130.012 85.0771 129.643 78.217 130.228L78.3866 132.216ZM120.641 132.241L120.853 134.224C124.195 133.868 127.258 132.35 129.154 129.878C131.103 127.336 131.664 123.971 130.245 120.408L128.392 121.146L126.54 121.884C127.46 124.195 127.048 126.069 125.988 127.451C124.875 128.903 122.893 129.995 120.43 130.258L120.641 132.241ZM128.392 121.146L130.245 120.408C129.334 118.119 127.544 116.675 125.522 115.783C123.535 114.906 121.215 114.507 118.96 114.323C116.689 114.137 114.342 114.158 112.265 114.195C110.128 114.233 108.36 114.283 107.042 114.187L106.897 116.177L106.752 118.166C108.302 118.279 110.321 118.219 112.336 118.183C114.411 118.146 116.581 118.13 118.634 118.298C120.703 118.468 122.515 118.816 123.911 119.432C125.273 120.033 126.12 120.83 126.539 121.884L128.392 121.146ZM106.897 116.177L106.942 114.183C103.609 114.108 100.398 114.205 97.3543 114.271C94.2886 114.338 91.3852 114.373 88.5507 114.188C82.9289 113.821 77.6388 112.592 72.2662 109.033L71.1649 110.696L70.0636 112.359C76.1754 116.407 82.1956 117.77 88.2909 118.168C91.3151 118.366 94.3719 118.326 97.4409 118.259C100.532 118.192 103.63 118.098 106.852 118.171L106.897 116.177ZM71.1649 110.696L72.2662 109.033C47.9075 92.8994 56.9336 55.9264 85.9765 53.2544L85.7938 51.2684L85.6111 49.2823C52.7079 52.3095 42.6565 94.2059 70.0635 112.359L71.1649 110.696Z" fill="#C58CF5" fill-opacity="0.5" mask="url(#path-2-inside-1_4_7)"/>
    <defs>
    <linearGradient id="paint0_linear_4_7" x1="106.316" y1="104.868" x2="133.707" y2="208.171" gradientUnits="userSpaceOnUse">
    <stop stop-color="#CDA1FD"/>
    <stop offset="1" stop-color="#7E0CD0"/>
    </linearGradient>
    </defs>
    </svg>
    